<svg width="98.000000" height="30.000000" viewBox="0 0 98 30" fill="none" xmlns="http://www.w3.org/2000/svg" xmlns:xlink="http://www.w3.org/1999/xlink">
	<desc>
			Created with Pixso.
	</desc>
	<defs>
		<clipPath id="clip9_817">
			<rect id="Frame" rx="-0.500000" width="97.000000" height="29.000000" transform="translate(0.500000 0.500000)" fill="white" fill-opacity="0"/>
		</clipPath>
	</defs>
	<rect id="Frame" rx="-0.500000" width="97.000000" height="29.000000" transform="translate(0.500000 0.500000)" fill="#FFFFFF" fill-opacity="0"/>
	<g clip-path="url(#clip9_817)">
		<path id="Vector" d="M73.45 29.01C73.77 29.01 74.03 28.86 74.18 28.61L74.18 28.61L74.18 28.98L74.54 28.98L74.54 26L74.17 26L74.17 27.18L74.16 27.18C74.02 26.94 73.76 26.79 73.44 26.79C72.88 26.79 72.49 27.23 72.49 27.9C72.49 28.58 72.88 29.01 73.45 29.01ZM73.52 27.11C73.91 27.11 74.17 27.42 74.17 27.9C74.17 28.38 73.91 28.7 73.52 28.7C73.13 28.7 72.88 28.39 72.88 27.9C72.88 27.42 73.13 27.11 73.52 27.11ZM75.07 28.98L75.44 28.98L75.44 26.83L75.07 26.83L75.07 28.98ZM75.25 26.47C75.38 26.47 75.49 26.37 75.49 26.25C75.49 26.12 75.38 26.02 75.25 26.02C75.13 26.02 75.02 26.12 75.02 26.25C75.02 26.37 75.13 26.47 75.25 26.47ZM76.86 28.68C76.47 28.68 76.22 28.38 76.22 27.9C76.22 27.41 76.47 27.11 76.86 27.11C77.25 27.11 77.51 27.42 77.51 27.9C77.51 28.37 77.25 28.68 76.86 28.68ZM76.87 29.79C77.49 29.79 77.89 29.45 77.89 28.93L77.89 26.83L77.53 26.83L77.53 27.19L77.52 27.19C77.37 26.94 77.11 26.79 76.79 26.79C76.21 26.79 75.84 27.22 75.84 27.9C75.84 28.56 76.21 28.99 76.78 28.99C77.1 28.99 77.36 28.84 77.5 28.61L77.51 28.61L77.51 28.95C77.51 29.27 77.28 29.48 76.89 29.48C76.61 29.48 76.39 29.35 76.31 29.15L75.93 29.15C75.99 29.52 76.38 29.79 76.87 29.79ZM78.4 28.98L78.77 28.98L78.77 26.83L78.4 26.83L78.4 28.98ZM78.58 26.47C78.71 26.47 78.82 26.37 78.82 26.25C78.82 26.12 78.71 26.02 78.58 26.02C78.46 26.02 78.35 26.12 78.35 26.25C78.35 26.37 78.46 26.47 78.58 26.47ZM79.4 26.31L79.4 26.83L79.06 26.83L79.06 27.13L79.4 27.13L79.4 28.42C79.4 28.83 79.56 28.99 79.97 28.99C80.06 28.99 80.16 28.99 80.21 28.98L80.21 28.68C80.18 28.68 80.09 28.69 80.05 28.69C79.86 28.69 79.77 28.6 79.77 28.4L79.77 27.13L80.21 27.13L80.21 26.83L79.77 26.83L79.77 26.31L79.4 26.31ZM81.31 28.71C81.04 28.71 80.86 28.57 80.86 28.37C80.86 28.17 81.03 28.04 81.33 28.02L81.93 27.99L81.93 28.16C81.93 28.47 81.66 28.71 81.31 28.71ZM81.22 29.01C81.52 29.01 81.81 28.85 81.94 28.61L81.95 28.61L81.95 28.98L82.31 28.98L82.31 27.49C82.31 27.07 81.97 26.79 81.45 26.79C80.92 26.79 80.59 27.08 80.56 27.45L80.92 27.45C80.97 27.24 81.15 27.11 81.44 27.11C81.75 27.11 81.93 27.27 81.93 27.53L81.93 27.71L81.29 27.74C80.77 27.77 80.48 28 80.48 28.37C80.48 28.76 80.78 29.01 81.22 29.01ZM82.8 28.98L83.18 28.98L83.18 26L82.8 26L82.8 28.98ZM85.33 28.71C85.06 28.71 84.88 28.57 84.88 28.37C84.88 28.17 85.05 28.04 85.36 28.02L85.95 27.99L85.95 28.16C85.95 28.47 85.68 28.71 85.33 28.71ZM85.25 29.01C85.55 29.01 85.83 28.85 85.97 28.61L85.97 28.61L85.97 28.98L86.33 28.98L86.33 27.49C86.33 27.07 86 26.79 85.47 26.79C84.94 26.79 84.61 27.08 84.58 27.45L84.95 27.45C84.99 27.24 85.17 27.11 85.46 27.11C85.77 27.11 85.95 27.27 85.95 27.53L85.95 27.71L85.31 27.74C84.79 27.77 84.5 28 84.5 28.37C84.5 28.76 84.8 29.01 85.25 29.01ZM87.72 28.68C87.33 28.68 87.08 28.38 87.08 27.9C87.08 27.41 87.33 27.11 87.72 27.11C88.11 27.11 88.37 27.42 88.37 27.9C88.37 28.37 88.11 28.68 87.72 28.68ZM87.73 29.79C88.35 29.79 88.74 29.45 88.74 28.93L88.74 26.83L88.39 26.83L88.39 27.19L88.38 27.19C88.23 26.94 87.97 26.79 87.65 26.79C87.07 26.79 86.7 27.22 86.7 27.9C86.7 28.56 87.07 28.99 87.64 28.99C87.96 28.99 88.22 28.84 88.36 28.61L88.37 28.61L88.37 28.95C88.37 29.27 88.13 29.48 87.75 29.48C87.47 29.48 87.24 29.35 87.17 29.15L86.78 29.15C86.85 29.52 87.24 29.79 87.73 29.79ZM90.13 27.1C90.49 27.1 90.72 27.36 90.73 27.72L89.51 27.72C89.54 27.36 89.78 27.1 90.13 27.1ZM90.72 28.36C90.66 28.56 90.45 28.7 90.17 28.7C89.76 28.7 89.51 28.43 89.51 28.02L89.51 28L91.12 28L91.12 27.86C91.12 27.21 90.75 26.79 90.14 26.79C89.52 26.79 89.12 27.25 89.12 27.91C89.12 28.59 89.51 29.01 90.16 29.01C90.65 29.01 91.03 28.74 91.09 28.36L90.72 28.36ZM91.5 28.98L91.87 28.98L91.87 27.71C91.87 27.35 92.1 27.11 92.46 27.11C92.8 27.11 92.97 27.3 92.97 27.65L92.97 28.98L93.35 28.98L93.35 27.58C93.35 27.1 93.06 26.79 92.57 26.79C92.22 26.79 91.99 26.94 91.86 27.17L91.85 27.17L91.85 26.83L91.5 26.83L91.5 28.98ZM95.69 27.53C95.64 27.15 95.31 26.79 94.75 26.79C94.13 26.79 93.72 27.23 93.72 27.9C93.72 28.59 94.13 29.01 94.75 29.01C95.26 29.01 95.64 28.71 95.69 28.29L95.33 28.29C95.26 28.54 95.06 28.7 94.75 28.7C94.37 28.7 94.1 28.4 94.1 27.9C94.1 27.42 94.36 27.11 94.75 27.11C95.08 27.11 95.27 27.3 95.32 27.53L95.69 27.53ZM96.22 29.78C96.63 29.78 96.81 29.63 97.01 29.13L97.89 26.83L97.49 26.83L96.87 28.62L96.87 28.62L96.25 26.83L95.84 26.83L96.67 28.98L96.62 29.13C96.53 29.38 96.42 29.48 96.21 29.48C96.16 29.48 96.1 29.47 96.06 29.47L96.06 29.77C96.1 29.78 96.18 29.78 96.22 29.78Z" fill="#FFFFFF" fill-opacity="1.000000" fill-rule="nonzero"/>
		<path id="Vector" d="M35.98 24.02L39.66 24.02L39.66 16.22C39.66 14.77 40.6 13.75 41.99 13.75C43.35 13.75 44.17 14.58 44.17 15.96L44.17 24.02L47.7 24.02L47.7 16.17C47.7 14.73 48.62 13.75 50.02 13.75C51.44 13.75 52.22 14.58 52.22 16.07L52.22 24.02L55.89 24.02L55.89 15.19C55.89 12.58 54.12 10.85 51.48 10.85C49.5 10.85 47.89 11.87 47.29 13.5L47.21 13.5C46.76 11.81 45.4 10.85 43.45 10.85C41.62 10.85 40.17 11.87 39.61 13.43L39.53 13.43L39.53 11.09L35.98 11.09L35.98 24.02ZM63.43 21.68C62.18 21.68 61.35 21.08 61.35 20.11C61.35 19.2 62.13 18.6 63.5 18.51L66.34 18.34L66.34 19.28C66.34 20.68 65.02 21.68 63.43 21.68ZM62.22 24.23C63.9 24.23 65.58 23.42 66.33 22.04L66.41 22.04L66.41 24.02L69.95 24.02L69.95 15.13C69.95 12.52 67.7 10.81 64.24 10.81C60.67 10.81 58.45 12.54 58.31 15.05L61.67 15.05C61.84 14.09 62.71 13.44 64.08 13.44C65.46 13.44 66.34 14.14 66.34 15.35L66.34 16.2L62.95 16.4C59.59 16.59 57.7 17.95 57.7 20.31C57.7 22.63 59.65 24.23 62.22 24.23ZM76.14 16.28L76.09 16.28L76.09 6.61L72.42 6.61L72.42 24.02L76.09 24.02L76.09 19.75L77.05 18.76L80.91 24.02L85.13 24.02L79.74 16.64L84.88 11.09L80.72 11.09L76.14 16.28ZM91.61 13.42C93.25 13.42 94.36 14.55 94.44 16.2L88.72 16.2C88.84 14.59 90 13.42 91.61 13.42ZM94.49 20.06C94.15 21.05 93.12 21.69 91.77 21.69C89.9 21.69 88.68 20.43 88.68 18.58L88.68 18.36L97.97 18.36L97.97 17.29C97.97 13.36 95.5 10.81 91.57 10.81C87.59 10.81 85.07 13.49 85.07 17.62C85.07 21.75 87.56 24.3 91.71 24.3C95.04 24.3 97.46 22.6 97.86 20.06L94.49 20.06Z" fill="#FFFFFF" fill-opacity="1.000000" fill-rule="nonzero"/>
		<path id="Subtract" d="M95.5814 0L88.5192 0C87.6643 0 86.9713 0.66333 86.9713 1.48145L86.9713 6.66675C86.9713 7.48486 87.6643 8.14819 88.5192 8.14819L95.5814 8.14819C96.4362 8.14819 97.1293 7.48486 97.1293 6.66675L97.1293 1.48145C97.1293 0.66333 96.4362 0 95.5814 0ZM91.2407 4.23071L91.2493 4.23071L92.0341 3.34326L92.7478 3.34326L91.866 4.29272L92.791 5.55566L92.0664 5.55566L91.4045 4.65576L91.2407 4.82495L91.2407 5.55566L90.6111 5.55566L90.6111 2.57788L91.2407 2.57788L91.2407 4.23071ZM94.8371 5.55566L92.9289 5.55566L92.9289 5.21289L94.0802 3.81592L94.0802 3.80347L92.9461 3.80347L92.9461 3.34326L94.8112 3.34326L94.8112 3.7251L93.7289 5.08301L93.7289 5.09326L94.8371 5.09326L94.8371 5.55566ZM90.1239 5.24805C90.1239 5.43164 89.9686 5.58032 89.7766 5.58032C89.5827 5.58032 89.4295 5.43164 89.4295 5.24805C89.4295 5.06226 89.5827 4.91577 89.7766 4.91577C89.9686 4.91577 90.1239 5.06226 90.1239 5.24805Z" clip-rule="evenodd" fill="#FFFFFF" fill-opacity="1.000000" fill-rule="evenodd"/>
		<path id="Vector" d="M19.83 10.92L16.22 10.92L14.17 20.57L14.1 20.57L11.7 10.92L8.18 10.92L5.8 20.57L5.72 20.57L3.69 10.92L0 10.92L3.57 23.94L7.43 23.94L9.85 14.73L9.93 14.73L12.36 23.94L16.27 23.94L19.83 10.92ZM27.1 13.27C28.74 13.27 29.85 14.41 29.93 16.07L24.22 16.07C24.34 14.44 25.5 13.27 27.1 13.27ZM29.98 19.95C29.64 20.95 28.61 21.59 27.27 21.59C25.4 21.59 24.18 20.32 24.18 18.46L24.18 18.24L33.46 18.24L33.46 17.16C33.46 13.21 30.98 10.64 27.07 10.64C23.09 10.64 20.57 13.34 20.57 17.49C20.57 21.65 23.06 24.22 27.2 24.22C30.53 24.22 32.94 22.5 33.34 19.95L29.98 19.95Z" fill="#FFFFFF" fill-opacity="1.000000" fill-rule="nonzero"/>
	</g>
</svg>
