<svg width="27.925171" height="27.925171" viewBox="0 0 27.9252 27.9252" fill="none" xmlns="http://www.w3.org/2000/svg" xmlns:xlink="http://www.w3.org/1999/xlink">
	<desc>
			Created with Pixso.
	</desc>
	<defs/>
	<path id="Vector" d="M0 13.96C7.71 13.96 13.96 7.71 13.96 0C13.96 7.71 20.21 13.96 27.92 13.96C20.21 13.96 13.96 20.21 13.96 27.92C13.96 20.21 7.71 13.96 0 13.96Z" fill="#FFFFFF" fill-opacity="1.000000" fill-rule="nonzero"/>
	<path id="Vector" d="M13.9 26.69C13.94 27.09 13.96 27.5 13.96 27.92C13.96 27.5 13.98 27.09 14.01 26.69C14.6 19.96 19.96 14.6 26.69 14.01C27.09 13.98 27.5 13.96 27.92 13.96C27.5 13.96 27.09 13.94 26.69 13.9C19.96 13.32 14.6 7.96 14.01 1.23C13.98 0.82 13.96 0.41 13.96 0C13.96 0.41 13.94 0.82 13.9 1.23C13.32 7.96 7.96 13.32 1.23 13.9C0.82 13.94 0.41 13.96 0 13.96C0.41 13.96 0.82 13.98 1.23 14.01C7.96 14.6 13.32 19.96 13.9 26.69ZM13.96 1.74Q14.04 2.42 14.19 3.09Q14.46 4.3 14.96 5.47Q15.18 6.01 15.45 6.52Q15.81 7.21 16.25 7.86Q16.6 8.38 16.99 8.86Q17.45 9.42 17.97 9.94Q18.49 10.46 19.05 10.91Q19.53 11.31 20.05 11.66Q20.71 12.1 21.4 12.46Q21.91 12.73 22.44 12.96Q23.61 13.45 24.83 13.73Q25.49 13.87 26.17 13.96Q25.49 14.04 24.83 14.19Q23.61 14.46 22.44 14.96Q21.91 15.18 21.4 15.45Q20.71 15.81 20.05 16.25Q19.54 16.6 19.05 17Q18.49 17.46 17.97 17.97Q17.46 18.49 17 19.05Q16.6 19.54 16.25 20.05Q15.81 20.71 15.45 21.4Q15.18 21.91 14.96 22.44Q14.46 23.61 14.19 24.83Q14.04 25.49 13.96 26.17L13.96 1.74Z" fill="#FFFFFF" fill-opacity="1.000000" fill-rule="evenodd"/>
</svg>
